Patient4_TMGait_0pt6_01_right_19_EMG.mot
version=1
nRows=20
nColumns=33
inDegrees=no
endheader
time	1LAddLong	2LGlutMax	3LGlutMed	4LIliopsoas	5LSemiMemb	6LBicFemLong	7LRecFem	8LVastMed	9LVastLat	10LGasMed	11LTibAnt	12lTibPost	13LPeroneusLong	14LSol	15LExtDigLong	16LFlexDigLong	17RAddLong	18RGlutMax	19RGlutMed	20RIliopsoas	21RSemiMemb	22RBicFemLong	23RRecFem	24RVastMed	25RVastLat	26RGasMed	27RTibAnt	28RTibPost	29RPeroneusLong	30RSol	31RExtDigLong	32RFlexDigLong
22.5	0.080566	-0.073395	0.14725	0.020142	0.030975	0.025635	-0.004578	-0.003967	0.039368	-0.048828	0.30502	-0.002136	-0.007019	0.003815	0.7724	0.009003	0.006409	-0.087891	0.2681	0.091858	-0.020599	-0.000458	0.48981	0.042572	-0.00473	0.005493	0.072784	-0.016479	-0.066833	-0.03006	0.003815	-0.007324
22.501	-0.028687	-0.079041	0.19226	0.014496	0.017395	0.028381	-0.008545	0	0.045319	-0.04364	0.52841	-0.000916	0.029297	0.058594	0.61005	-0.004272	0.010376	-0.078583	0.20721	0.029144	-0.017395	-0.015869	0.35339	-0.022125	-0.010681	0.003967	-0.13336	-0.019836	0.031891	-0.018768	0.001678	-0.003357
22.502	-0.013733	-0.084991	0.045471	0.020294	0.012512	0.003967	-0.006714	0.007172	0.066681	-0.068207	0.039215	-0.008392	0.22629	0.16785	0.097198	0.005188	0.008392	-0.048065	0.053864	0.037384	-0.02655	-0.014343	0.27145	-0.11093	0.006714	0.011292	-0.013885	-0.011139	0.025482	-0.007935	0.000916	0.001678
22.503	-0.006409	-0.079346	-0.001984	0.009766	0.007172	0.008545	-0.009766	-0.003204	0.085144	-0.08728	-0.13107	-0.011902	0.071106	0.2388	-0.29633	0.005646	0.01236	-0.074615	-0.24078	0.028687	-0.028381	-0.014954	0.22858	-0.079651	-0.020142	0.007172	-0.028687	-0.013123	-0.10727	0.04425	0.000458	-0.011292
22.504	-0.011444	-0.068054	0.014343	0.010529	-0.001068	0.008698	0.015869	0.019531	0.060577	-0.080414	-0.16144	-0.009155	-0.05127	0.24368	-0.60608	0.00824	0.007019	-0.12787	-0.19913	-0.028687	-0.025635	-0.02243	0.13001	-0.13107	-0.039978	0.004425	-0.16174	-0.018005	-0.17197	0.05127	0.001068	-0.000763
22.505	-0.00351	-0.073395	-0.039825	0.009003	-0.013275	-0.010681	0.030823	0.001984	0.04715	-0.050201	-0.16968	0.00412	0.23544	0.16403	-0.73303	0.001068	-0.003052	-0.10437	0.006866	-0.10132	-0.03479	-0.016479	0.040894	-0.18204	-0.036011	-0.010071	-0.095825	-0.01358	-0.16937	0.045319	0.001831	-0.007477
22.506	-0.014343	-0.081787	-0.011902	0.00351	-0.043488	-0.001984	0.011749	0.00946	0.040894	-0.025482	-0.15549	-0.004425	-0.018311	0.022888	-0.77042	0.00885	0.00351	-0.12451	0.2533	-0.10681	-0.033722	-0.015259	-0.088806	-0.17136	-0.037537	0.004272	0.02655	-0.011902	-0.043793	0.033417	0.00061	-0.001526
22.507	-0.002899	-0.10223	-0.038147	0.011597	-0.045013	-0.012207	0.004425	0.004578	0.033112	0.030212	-0.11505	-0.006104	0.078888	-0.13458	-0.76965	0.008698	-0.007782	-0.16251	0.23926	-0.049286	-0.031433	-0.011597	-0.17151	-0.14557	-0.023193	0.00473	0.15396	-0.01358	0.013733	0.050049	0.003204	-0.012817
22.508	0.001678	-0.096436	-0.058136	0.010529	0.003967	-0.021362	-0.010681	0.007324	0.041809	0.041046	-0.016785	-0.007324	0.14725	-0.09201	-0.062103	0.003967	0.004883	-0.12299	0.13809	0.079803	-0.033569	0.00061	-0.23407	-0.1001	-0.017853	0.008087	0.19898	-0.011749	0.007172	0.040131	0.00412	-0.013123
22.509	0.002289	-0.061798	-0.076141	0.001984	0.043793	-0.041351	0.059052	0.010834	0.024567	-0.007629	-0.027466	0.003967	0.39185	-0.10803	0.27649	0.00885	0.015869	-0.1181	-0.23056	0.11429	-0.034637	-0.012512	-0.43213	-0.002136	-0.009766	0.001068	0.12878	-0.012817	0.023499	0.012512	0.007782	-0.01236
22.51	-0.00824	-0.03952	-0.097656	0.000153	0.00946	-0.006714	0.1033	0.005798	-0.017242	-0.034027	-0.031433	0.005035	0.69534	-0.11368	-0.015411	0.011139	0.029602	-0.15854	-0.28702	0.20416	-0.036469	-0.006256	-0.41748	0.001373	-0.028381	-0.000458	0.10147	-0.012054	-0.011444	0.015869	0.002136	-0.009003
22.511	-0.005798	-0.050049	-0.097046	-0.000458	-0.040436	0.035553	0.093384	0.016937	-0.028381	0.036316	-0.03067	-0.002289	-0.20721	-0.09552	-0.17273	0.011444	0.003967	-0.15961	-0.2121	0.10864	-0.032959	0.009308	-0.22003	0.023804	-0.017395	0.005646	-0.027008	-0.01236	0.006409	-0.036621	0.001373	-0.014038
22.512	0.000153	-0.028229	0.039978	0.023804	-0.026093	0.046082	0.11551	0.012817	-0.044098	-0.00946	-0.086517	-0.003357	-0.32486	-0.048218	-0.1471	0.02655	0.001221	-0.19333	-0.011444	0.050964	-0.037079	0.006561	-0.019989	0.017853	-0.019379	0.008392	-0.1004	-0.01358	-0.00061	-0.057983	0.004425	-0.010376
22.513	0.014191	-0.04303	0.012512	0.053864	0.040741	0.036163	0.090637	0.028839	-0.11643	-0.050049	0.014954	0.005951	-0.26154	-0.068512	0.31448	0.01297	-0.016937	-0.14984	0.13657	-0.048523	-0.036316	-0.001526	0.15381	0.01236	-0.014801	0.004272	0.11078	-0.010071	-0.056305	-0.058899	0.00824	-0.011597
22.514	0.008698	-0.041656	-0.005188	0.03479	0.020599	0.056763	-0.074005	0.033112	-0.11765	-0.0354	0.1384	0.008392	-0.067749	-0.23041	0.55771	-0.005035	-0.022583	-0.15595	0.13565	-0.022583	-0.037384	0.015869	0.20126	0.11505	-0.006104	0.003357	0.21316	-0.011444	-0.13138	-0.053558	0.000763	-0.008698
22.515	0.007172	-0.016174	-0.035095	-0.004578	0.010071	0.12985	-0.041046	0.012665	0.016937	0.00473	0.2858	-0.005188	0.10757	-0.28961	0.495	0.018311	-0.03479	-0.15656	0.06485	0.02655	-0.027924	0.0177	0.22049	0.1683	0.013885	-0.002594	0.27329	-0.010834	-0.17166	-0.020447	0.003052	-0.005646
22.516	0.007477	0.040894	0.070038	0.003967	-0.045319	0.22492	0.011292	-0.001984	0.17654	0.027313	0.24246	0.005646	-0.37277	-0.24887	0.47974	0.008392	-0.013275	-0.13001	0.07782	-0.075378	-0.027618	0.000305	0.28671	0.13138	0.015869	-0.002899	0.23224	-0.009918	-0.12878	-0.080566	0.001068	-0.012512
22.517	-0.011749	0.031586	-0.048828	0.006104	-0.11108	0.27985	0.006409	0.007477	0.14771	0.04364	-0.076141	-0.001831	-0.17777	-0.15305	0.15152	0.006256	-0.006256	-0.13779	0.18951	-0.13077	-0.032654	0.006561	0.26474	0.10376	0.021515	-0.004883	-0.028381	-0.012207	-0.080261	-0.10757	-0.002441	-0.010834
22.518	-0.022125	0.069885	-0.1236	-0.000916	-0.16281	0.29419	-0.054169	0.002594	0.076447	0.022583	-0.077515	0.002136	-0.067444	-0.065002	0.028076	0.011444	0.002441	-0.12604	0.16464	-0.098267	-0.023346	0.02243	0.13657	0.000763	-0.00824	0.00061	-0.20447	-0.007477	0.006714	-0.071411	0	-0.004578
22.519	-0.019989	0.094757	-0.19333	-0.001526	-0.10605	0.16922	-0.1181	0.002747	0.11505	-0.035095	-0.071564	0.004425	0.084534	0.072021	0.26749	0.010376	-0.000763	-0.11093	-0.060425	-0.047455	-0.035858	0.016174	0.048523	-0.018158	0.004578	0.008087	-0.16724	-0.013123	0.050049	-0.022736	0.001984	0.007324
